<svg width="13" height="12" viewBox="0 0 13 12" fill="none" xmlns="http://www.w3.org/2000/svg">
<path d="M6.4647 0C3.1527 0 0.470703 2.688 0.470703 6C0.470703 9.312 3.1527 12 6.4647 12C9.7827 12 12.4707 9.312 12.4707 6C12.4707 2.688 9.7827 0 6.4647 0ZM6.4707 10.8C3.8187 10.8 1.6707 8.652 1.6707 6C1.6707 3.348 3.8187 1.2 6.4707 1.2C9.1227 1.2 11.2707 3.348 11.2707 6C11.2707 8.652 9.1227 10.8 6.4707 10.8Z" fill="#377EF9"/>
<path d="M6.77305 3H5.87305V6.6L9.02305 8.49L9.47305 7.752L6.77305 6.15V3Z" fill="#377EF9"/>
</svg>
