<svg width="13" height="13" viewBox="0 0 13 13" fill="none" xmlns="http://www.w3.org/2000/svg">
<path d="M10.6707 1.7H9.4707V1.1C9.4707 0.94087 9.40749 0.788258 9.29497 0.675736C9.18245 0.563214 9.02983 0.5 8.8707 0.5C8.71157 0.5 8.55896 0.563214 8.44644 0.675736C8.33392 0.788258 8.2707 0.94087 8.2707 1.1V1.7H4.6707V1.1C4.6707 0.94087 4.60749 0.788258 4.49497 0.675736C4.38245 0.563214 4.22983 0.5 4.0707 0.5C3.91157 0.5 3.75896 0.563214 3.64644 0.675736C3.53392 0.788258 3.4707 0.94087 3.4707 1.1V1.7H2.2707C1.79331 1.7 1.33548 1.88964 0.997911 2.22721C0.660346 2.56477 0.470703 3.02261 0.470703 3.5V10.7C0.470703 11.1774 0.660346 11.6352 0.997911 11.9728C1.33548 12.3104 1.79331 12.5 2.2707 12.5H10.6707C11.1481 12.5 11.6059 12.3104 11.9435 11.9728C12.2811 11.6352 12.4707 11.1774 12.4707 10.7V3.5C12.4707 3.02261 12.2811 2.56477 11.9435 2.22721C11.6059 1.88964 11.1481 1.7 10.6707 1.7ZM11.2707 10.7C11.2707 10.8591 11.2075 11.0117 11.095 11.1243C10.9824 11.2368 10.8298 11.3 10.6707 11.3H2.2707C2.11157 11.3 1.95896 11.2368 1.84644 11.1243C1.73392 11.0117 1.6707 10.8591 1.6707 10.7V6.5H11.2707V10.7ZM11.2707 5.3H1.6707V3.5C1.6707 3.34087 1.73392 3.18826 1.84644 3.07574C1.95896 2.96321 2.11157 2.9 2.2707 2.9H3.4707V3.5C3.4707 3.65913 3.53392 3.81174 3.64644 3.92426C3.75896 4.03679 3.91157 4.1 4.0707 4.1C4.22983 4.1 4.38245 4.03679 4.49497 3.92426C4.60749 3.81174 4.6707 3.65913 4.6707 3.5V2.9H8.2707V3.5C8.2707 3.65913 8.33392 3.81174 8.44644 3.92426C8.55896 4.03679 8.71157 4.1 8.8707 4.1C9.02983 4.1 9.18245 4.03679 9.29497 3.92426C9.40749 3.81174 9.4707 3.65913 9.4707 3.5V2.9H10.6707C10.8298 2.9 10.9824 2.96321 11.095 3.07574C11.2075 3.18826 11.2707 3.34087 11.2707 3.5V5.3Z" fill="#377EF9"/>
</svg>
