<svg width="11" height="14" viewBox="0 0 11 14" fill="none" xmlns="http://www.w3.org/2000/svg">
<path d="M5.67109 7.6C6.66521 7.6 7.47109 6.79411 7.47109 5.8C7.47109 4.80589 6.66521 4 5.67109 4C4.67698 4 3.87109 4.80589 3.87109 5.8C3.87109 6.79411 4.67698 7.6 5.67109 7.6Z" stroke="#377EF9" stroke-linecap="round" stroke-linejoin="round"/>
<path d="M5.67109 1C4.39805 1 3.17716 1.50571 2.27698 2.40589C1.37681 3.30606 0.871094 4.52696 0.871094 5.8C0.871094 6.9352 1.11229 7.678 1.77109 8.5L5.67109 13L9.57109 8.5C10.2299 7.678 10.4711 6.9352 10.4711 5.8C10.4711 4.52696 9.96538 3.30606 9.06521 2.40589C8.16503 1.50571 6.94413 1 5.67109 1V1Z" stroke="#377EF9" stroke-linecap="round" stroke-linejoin="round"/>
</svg>
